<svg viewBox="0 0 242.1 124" height="50">
<g>
  <title>Layer 1</title>
  <path d="m28.75,34.375c0,0.20833 0,0.41667 0,0.625c0,0.20833 0,0.41667 0,0.625c0,0.20833 0,0.41667 0,0.625c0,0.20833 0.14446,0.30392 0.41667,0.41667c0.19247,0.07973 0.41667,0 0.625,0c0.20833,0 0.41667,0 0.625,0c0.20833,0 0.47769,0.14731 0.625,0c0.14732,-0.14732 0.06102,-0.26936 0.20833,-0.41667c0.14731,-0.14732 0.51225,0.06387 0.625,-0.20833c0.07973,-0.19248 0.06102,-0.47769 0.20833,-0.625c0.14732,-0.14732 0.20834,-0.20834 0.20834,-0.41667c0,-0.20833 0,-0.41667 0,-0.625c0,-0.20833 0,-0.41667 0,-0.625c0,-0.20833 -0.20834,-0.20833 -0.41667,-0.20833c-0.20833,0 -0.41667,0 -0.625,0c-0.20833,0 -0.41667,0 -0.625,0c-0.20833,0 -0.41667,0 -0.625,0c-0.20833,0 -0.41667,0 -0.625,0c-0.20833,0 -0.47769,-0.14732 -0.625,0c-0.14731,0.14731 -0.20833,0.20833 -0.20833,0.41666c0,0.20834 0,0.41667 0,0.625l0,0.20834" id="svg_29" stroke="#000" fill="none"/>
  <path d="m25.41667,42.70833c0,0.20834 0,0.625 0,0.83334c0,0.41666 0,0.83333 0,1.45833c0,0.41667 0,1.04167 0,1.66667c0,0.625 0.1028,1.43303 0.20833,2.08333c0.13349,0.82257 -0.19146,1.27229 0,2.08333c0.10703,0.45339 0.20833,1.25 0.20833,1.875c0,0.625 0.20833,1.45834 0.20833,2.29167c0,0.625 0,1.45833 0,2.29167c0,1.04166 0.20833,2.08333 0.20833,3.125c0,1.04166 0,2.08333 0,2.91666c0,1.04167 -0.10182,1.88124 0,2.70833c0.10495,0.85255 0.20833,1.45834 0.20833,2.29167c0,0.625 0,1.25 0,2.08333c0,0.625 -0.10011,1.46641 0,2.08334c0.10553,0.6503 0.31114,1.2247 0.41667,1.875c0.10011,0.61693 0.14159,1.25538 0.20833,1.66666c0.10553,0.6503 0.30964,1.00495 0.41667,1.45834c0.09573,0.40552 0.30964,0.79662 0.41667,1.25c0.04786,0.20277 0.30392,0.14447 0.41667,0.41666c0.07973,0.19247 0.1286,0.2242 0.20833,0.41667c0.11275,0.27219 0.33694,0.22419 0.41667,0.41666c0.11275,0.2722 0.3528,0.30392 0.625,0.41666c0.19247,0.07973 0.42224,-0.04787 0.625,0c0.45339,0.10703 0.625,0.20834 1.04167,0.20834c0.20833,0 0.41667,0 0.83333,0c0.41667,0 0.625,0 1.04167,0c0.20833,0 0.56113,-0.09559 0.83333,-0.20834c0.19248,-0.07973 0.43253,-0.1286 0.625,-0.20833c0.27221,-0.11275 0.41667,-0.41667 0.625,-0.625c0.20834,-0.20834 0.20834,-0.41667 0.41667,-0.625c0.20834,-0.20834 0.25722,-0.44839 0.41667,-0.83334c0.11275,-0.2722 0.30392,-0.56113 0.41666,-0.83334c0.07972,-0.19247 0.20834,-0.625 0.20834,-0.83333c0,-0.41667 0.20833,-0.625 0.20833,-1.04167c0,-0.41666 0.20833,-0.83333 0.20833,-1.25c0,-0.41666 0.20834,-0.83333 0.20834,-1.25c0,-0.41666 0,-0.83333 0,-1.25c0,-0.41666 0,-0.83333 0,-1.25c0,-0.41666 0,-0.83333 0,-1.45833c0,-0.41667 0,-0.83334 0,-1.45834c0,-0.41666 0.09573,-0.84448 0,-1.25c-0.10703,-0.45338 -0.11261,-0.84448 -0.20834,-1.25c-0.10703,-0.45338 -0.16047,-1.04724 -0.20833,-1.25c-0.10703,-0.45339 -0.20833,-0.83333 -0.20833,-1.45833c0,-0.41667 0,-0.83334 0,-1.25c0,-0.41667 0,-0.83334 0,-1.25c0,-0.41667 0,-0.83334 0,-1.25c0,-0.41667 -0.20834,-0.83334 -0.20834,-1.25c0,-0.41667 0,-0.83334 0,-1.04167c0,-0.625 -0.20833,-0.83333 -0.20833,-1.25c0,-0.41667 0,-0.83333 0,-1.25c0,-0.20833 0,-0.625 0,-1.04167c0,-0.20833 0.09573,-0.63615 0,-1.04166c-0.10703,-0.45339 -0.20833,-0.625 -0.20833,-1.04167c0,-0.20833 0,-0.625 0,-0.83333c0,-0.41667 -0.09558,-0.56113 -0.20834,-0.83334c-0.07972,-0.19247 0,-0.41666 0,-0.83333c0,-0.20833 -0.20833,-0.41667 -0.20833,-0.625c0,-0.20833 -0.06102,-0.47769 -0.20833,-0.625c-0.14731,-0.14731 0,-0.41667 0,-0.625c0,-0.20833 -0.09558,-0.3528 -0.20834,-0.625c-0.07973,-0.19247 -0.20833,-0.41667 -0.20833,-0.625c0,-0.20833 -0.20833,-0.20833 -0.20833,-0.41667c0,-0.20833 -0.06102,-0.26935 -0.20834,-0.41666c-0.14732,-0.14732 -0.09558,-0.3528 -0.20833,-0.625c-0.07973,-0.19248 -0.06102,-0.26936 -0.20833,-0.41667c-0.14732,-0.14732 -0.26936,-0.06102 -0.41667,-0.20833c-0.14732,-0.14732 -0.26935,-0.26935 -0.41667,-0.41667c-0.14731,-0.14731 -0.26935,-0.06102 -0.41666,-0.20833c-0.14732,-0.14732 -0.20834,-0.20834 -0.41667,-0.20834c-0.20833,0 -0.20833,-0.20833 -0.41667,-0.20833c-0.20833,0 -0.47769,0.14731 -0.625,0c-0.14731,-0.14731 -0.20833,-0.20833 -0.41667,-0.20833c-0.20833,0 -0.41667,0 -0.625,0c-0.20833,0 -0.41667,0 -0.625,0c-0.20833,0 -0.41667,0 -0.625,0c-0.20833,0 -0.41667,0 -0.625,0c-0.20833,0 -0.41667,0 -0.625,0c-0.20833,0 -0.625,0 -0.83333,0c-0.20833,0 -0.41667,0 -0.625,0c-0.20833,0 -0.41667,0.20833 -0.625,0.20833l0,0.20833" id="svg_30" stroke="#000" fill="none"/>
  <path d="m47.91667,28.75c0,0.20833 0,0.41667 0,0.625c0,0.41667 0,0.83333 0,1.25c0,0.41667 0,0.83333 0,1.25c0,0.625 0,1.25 0,1.875c0,0.625 0,1.45833 0,2.29167c0,1.04166 0,1.875 0,2.91666c0,1.25 0.10523,2.50426 0.20833,3.75c0.10452,1.26292 0.31215,2.69541 0.41667,3.95834c0.1031,1.24574 0.20833,2.5 0.20833,3.75c0,1.04166 0,2.29166 0,3.125c0,0.83333 0,1.66666 0,2.29166c0,1.04167 0,1.66667 0,2.5c0,0.625 0.20833,1.25 0.20833,2.08334c0,0.83333 0,1.66666 0,2.29166c0,0.83334 0.13348,1.67743 0,2.5c-0.10553,0.6503 -0.30964,1.42161 -0.41666,1.875c-0.14359,0.60828 -0.1013,1.21328 -0.20834,1.66666c-0.09573,0.40552 0.15945,1.07338 0,1.45834c-0.11275,0.27219 -0.20833,0.625 -0.20833,1.04166c0,0.20834 0,0.41666 0,0.83334c0,0.20833 -0.20833,0.41666 -0.20833,0.83333c0,0.20834 0,0.41667 0,0.625c0,0.20834 0.04786,0.42224 0,0.625c-0.10703,0.45339 -0.20834,0.625 -0.20834,0.83334c0,0.20834 0,0.41666 0,0.625c0,0.20834 0.07973,0.43253 0,0.625c-0.11275,0.2722 -0.20833,0.41666 -0.20833,0.625c0,0.20834 0,0.41666 0,0.625c0,0.20834 0,0.41666 0,0.625c0,0.20834 -0.09558,0.3528 -0.20833,0.625c-0.07973,0.19247 0,0.41666 0,0.625c0,0.20834 0,0.41666 0,0.625c0,0.20834 -0.06102,0.26935 -0.20834,0.41666c-0.14732,0.14732 0,0.41667 0,0.625c0,0.20834 0,0.41667 0.20834,0.41667c0.20833,0 0.41666,0 0.625,0c0.20833,0 0.41666,0 0.625,0c0.20833,0 0.41666,0 0.625,0c0.20833,0 0.20833,-0.20834 0.41666,-0.20834c0.20834,0 0.26935,-0.06102 0.41667,-0.20834c0.14731,-0.14732 0.41667,0 0.625,0c0.20833,0 0.26936,-0.06102 0.41667,-0.20833c0.14731,-0.14732 0.41666,0 0.625,0c0.20833,0 0.35279,-0.09559 0.625,-0.20834c0.19247,-0.07973 0.26935,-0.06102 0.41666,-0.20834c0.14732,-0.14732 0.26936,-0.06102 0.41667,-0.20833c0.14731,-0.14732 0.26935,-0.06102 0.41667,-0.20834c0.14732,-0.14732 0.06102,-0.26935 0.20833,-0.41666c0.14732,-0.14732 0.20833,-0.20834 0.20833,-0.41667c0,-0.20833 0.04889,-0.44838 0.20834,-0.83333c0.11275,-0.2722 0.20833,-0.41667 0.20833,-0.625c0,-0.41667 0.20833,-0.625 0.20833,-0.83334c0,-0.20834 0,-0.625 0,-0.83334c0,-0.20833 0,-0.41666 0,-0.625c0,-0.41666 0,-0.625 0,-0.83333c0,-0.20834 0,-0.41667 0,-0.625c0,-0.20834 0,-0.41667 0,-0.625c0,-0.20834 0,-0.41667 0,-0.625c0,-0.20834 0,-0.41667 0,-0.625c0,-0.20834 0,-0.41667 0,-0.625c0,-0.20834 0,-0.41667 0,-0.625c0,-0.20834 0,-0.41667 0,-0.625c0,-0.20834 0,-0.41667 0,-0.625c0,-0.20834 0,-0.41667 0,-0.625c0,-0.20834 0,-0.41667 0,-0.625c0,-0.20834 0,-0.41667 0,-0.625c0,-0.20834 0,-0.41667 0,-0.625c0,-0.20834 0,-0.41667 0,-0.625c0,-0.20834 0,-0.41667 0,-0.625c0,-0.20834 -0.20833,-0.20834 -0.20833,-0.625c0,-0.20834 -0.09558,-0.35281 -0.20833,-0.625c-0.07973,-0.19247 0.07973,-0.43253 0,-0.625c-0.11275,-0.2722 -0.20834,-0.41666 -0.20834,-0.625c0,-0.20833 -0.20833,-0.20833 -0.20833,-0.41666c0,-0.20834 -0.09558,-0.3528 -0.20833,-0.625c-0.07973,-0.19248 0.14731,-0.47769 0,-0.625c-0.14732,-0.14732 -0.20834,-0.20834 -0.20834,-0.41667c0,-0.20833 -0.20833,-0.20833 -0.20833,-0.41667c0,-0.20833 0.14732,-0.47768 0,-0.625c-0.14731,-0.14731 -0.20833,-0.20833 -0.20833,-0.41666c0,-0.20834 0,-0.41667 0,-0.625c0,-0.20834 0,-0.41667 0,-0.625c0,-0.20834 0,-0.41667 0,-0.625c0,-0.20834 0,-0.41667 0,-0.20834c0,0.20834 0.06102,0.26936 0.20833,0.41667c0.14731,0.14731 0.09558,0.3528 0.20833,0.625c0.07972,0.19247 0.12861,0.22419 0.20834,0.41667c0.11275,0.2722 0.30392,0.3528 0.41666,0.625c0.07972,0.19247 0.30392,0.14447 0.41667,0.41666c0.07973,0.19248 0.1286,0.64086 0.20833,0.83334c0.11275,0.2722 0.3688,0.42224 0.41667,0.625c0.10703,0.45338 0.35262,0.66375 0.625,1.04166c0.17227,0.23902 0.22873,0.58842 0.625,0.83334c0.17722,0.10953 0.38009,0.22872 0.625,0.625c0.10953,0.17722 0.20834,0.41667 0.41667,0.625c0.20834,0.20834 0.41666,0.625 0.625,0.83334c0.20833,0.20834 0.41666,0.625 0.625,0.83334c0.20833,0.20833 0.51225,0.3528 0.625,0.625c0.07972,0.19247 0.26935,0.26935 0.41666,0.41666c0.14732,0.14732 0.12861,0.43253 0.20834,0.625c0.11275,0.2722 0.41666,0.41666 0.625,0.625c0.20833,0.20834 0.14446,0.51225 0.41666,0.625c0.38495,0.15945 0.54527,0.43253 0.625,0.625c0.11275,0.2722 0.41667,0.41666 0.625,0.625c0.20834,0.20834 0.3528,0.51225 0.625,0.625c0.19248,0.07973 0.41667,0.20834 0.625,0.41666c0.20834,0.20834 0.3528,0.51225 0.625,0.625c0.19247,0.07973 0.3528,0.30392 0.625,0.41667c0.19247,0.07973 0.42224,0.16046 0.625,0.20833c0.45338,0.10703 0.64085,0.33695 0.83333,0.41667c0.2722,0.11275 0.3528,0.30392 0.625,0.41666c0.19247,0.07973 0.35281,0.30392 0.625,0.41666c0.19247,0.07973 0.41667,0.20834 0.625,0.20834c0.20834,0 0.2242,0.12861 0.41667,0.20834c0.27219,0.11275 0.43253,0.1286 0.625,0.20833c0.2722,0.11275 0.41666,0.20834 0.625,0.20834c0.20833,0 0.41666,0.20834 0.625,0.20834c0.20833,0 0.43253,-0.07973 0.625,0c0.27219,0.11275 0.41666,0.20833 0.625,0.20833c0.41666,0 0.625,0.20834 0.83333,0.20834c0.41667,0 0.625,0 0.83334,0c0.20834,0 0.41666,0 0.625,0c0.20834,0 0.06103,-0.26936 0.20834,-0.41666c0.14731,-0.14731 0.20833,-0.20834 0.20833,-0.41667c0,-0.20833 0,-0.41666 0,-0.625c0,-0.20833 0,-0.41666 0,-0.625c0,-0.20833 0,-0.41666 0,-0.625c0,-0.20833 -0.06102,-0.26936 -0.20833,-0.41666c-0.14732,-0.14732 -0.09559,-0.3528 -0.20834,-0.625c-0.07973,-0.19247 -0.30392,-0.3528 -0.41666,-0.625c-0.07973,-0.19247 -0.30392,-0.3528 -0.41667,-0.625c-0.07973,-0.19247 -0.1286,-0.43253 -0.20833,-0.625c-0.11275,-0.2722 -0.51225,-0.3528 -0.625,-0.625c-0.07973,-0.19247 -0.20834,-0.20833 -0.41667,-0.41666c-0.20834,-0.20834 -0.41666,-0.41666 -0.625,-0.625c-0.20834,-0.20834 -0.44838,-0.46555 -0.83333,-0.625c-0.2722,-0.11275 -0.41667,-0.41667 -0.625,-0.625c-0.20834,-0.20834 -0.35281,-0.51225 -0.625,-0.625c-0.19247,-0.07973 -0.20834,-0.20834 -0.41667,-0.41667c-0.20833,-0.20833 -0.35262,-0.45541 -0.625,-0.83333c-0.17227,-0.23901 -0.625,-0.41667 -0.83333,-0.625c-0.20834,-0.20834 -0.51225,-0.14447 -0.625,-0.41667c-0.07973,-0.19247 -0.20834,-0.20833 -0.41667,-0.41666c-0.20833,-0.20833 -0.26935,-0.26935 -0.41666,-0.41667c-0.14732,-0.14732 -0.47768,-0.06102 -0.625,-0.20833c-0.14732,-0.14731 -0.14446,-0.30392 -0.41666,-0.41667c-0.19247,-0.07973 -0.26936,-0.06102 -0.41667,-0.20833c-0.14732,-0.14731 -0.20833,-0.20833 -0.41666,-0.41667c-0.20833,-0.20833 -0.37995,-0.30964 -0.83333,-0.41666c-0.20276,-0.04787 -0.43253,-0.12861 -0.625,-0.20834c-0.2722,-0.11275 -0.41667,-0.41666 -0.625,-0.41666c-0.20834,0 -0.3528,-0.30392 -0.625,-0.41667c-0.19248,-0.07973 -0.20834,-0.20833 -0.41667,-0.20833c-0.20833,0 -0.20833,-0.20834 -0.41667,-0.20834c-0.20833,0 -0.26935,-0.06102 -0.41666,-0.20833c-0.14731,-0.14731 -0.26936,-0.06102 -0.41667,-0.20833c-0.14732,-0.14732 -0.06102,-0.26936 -0.20833,-0.41667c-0.14732,-0.14732 -0.3528,-0.30392 -0.625,-0.41667c-0.19248,-0.07973 -0.22419,-0.12861 -0.41667,-0.20833c-0.2722,-0.11275 -0.26935,-0.26935 -0.41667,-0.41667c-0.14731,-0.14731 -0.43252,-0.1286 -0.625,-0.20833c-0.2722,-0.11275 -0.47768,-0.06102 -0.625,-0.20833c-0.14732,-0.14732 -0.06102,-0.26936 -0.20833,-0.41667c-0.14731,-0.14731 -0.41667,0 -0.41667,-0.20833c0,-0.20834 0,-0.41667 0.20834,-0.41667c0.20833,0 0.43252,-0.1286 0.625,-0.20833c0.2722,-0.11275 0.43252,-0.33694 0.625,-0.41667c0.2722,-0.11275 0.35279,-0.30392 0.625,-0.41667c0.19247,-0.07972 0.14447,-0.30392 0.41666,-0.41666c0.19248,-0.07973 0.26936,-0.06102 0.41667,-0.20834c0.14731,-0.14731 0.14447,-0.30392 0.41667,-0.41666c0.19247,-0.07972 0.26935,-0.06102 0.41666,-0.20834c0.14731,-0.14731 0.06102,-0.26935 0.20834,-0.41666c0.14731,-0.14731 0.47768,-0.06102 0.625,-0.20834c0.14731,-0.14731 0.12861,-0.22419 0.20833,-0.41666c0.11275,-0.2722 0.51225,-0.14447 0.625,-0.41667c0.07972,-0.19247 0.26935,-0.06102 0.41667,-0.20833c0.14732,-0.14732 0.17765,-0.2444 0.41666,-0.41667c0.37791,-0.27238 0.625,-0.41667 0.83334,-0.625c0.20833,-0.20833 0.51225,-0.3528 0.625,-0.625c0.07973,-0.19247 0.20833,-0.20833 0.41666,-0.41667c0.20833,-0.20833 0.43253,-0.33694 0.625,-0.41666c0.2722,-0.11275 0.59431,-0.45273 0.83333,-0.625c0.37792,-0.27239 0.64086,-0.33694 0.83334,-0.41667c0.2722,-0.11275 0.26935,-0.47769 0.41666,-0.625c0.14732,-0.14732 0.14447,-0.30392 0.41667,-0.41667c0.19247,-0.07972 0.14446,-0.30392 0.41666,-0.41666c0.19247,-0.07973 0.33694,-0.22419 0.41666,-0.41667c0.11275,-0.2722 0.41667,-0.20833 0.41667,-0.41667c0,-0.20833 0.06101,-0.26935 0.20833,-0.41666c0.14732,-0.14732 0.26936,-0.26936 0.41667,-0.41667c0.14731,-0.14731 0.20833,-0.20833 0.41666,-0.41667c0.20834,-0.20833 0.3528,-0.51225 0.625,-0.625c0.19247,-0.07973 0.30392,-0.14447 0.41666,-0.41666c0.07973,-0.19248 0.12861,-0.22419 0.20834,-0.41667c0.11275,-0.2722 0.26936,-0.26936 0.41666,-0.41667c0.14732,-0.14731 0.12861,-0.43252 0.20834,-0.625c0.11275,-0.2722 0.33694,-0.43252 0.41666,-0.625c0.11275,-0.2722 0.30392,-0.35279 0.41667,-0.625c0.07973,-0.19247 -0.06102,-0.26935 -0.20834,-0.41666c-0.14732,-0.14732 -0.20834,-0.20834 -0.625,-0.20834c-0.41666,0 -0.625,0 -1.04166,0c-0.41667,0 -0.625,-0.20833 -0.83334,-0.20833c-0.20834,0 -0.41666,0 -0.625,0c-0.20834,0 -0.41666,0 -0.625,0c-0.20834,0 -0.47768,0.06102 -0.625,0.20833c-0.14732,0.14732 -0.06102,0.26936 -0.20834,0.41667c-0.14731,0.14731 -0.26935,0.06102 -0.41666,0.20833c-0.14732,0.14732 -0.33694,0.43253 -0.41666,0.625c-0.11275,0.27221 -0.38599,0.45273 -0.625,0.625c-0.37792,0.27239 -0.41667,0.41667 -0.625,0.625c-0.20834,0.20834 -0.41667,0.41667 -0.625,0.625c-0.20834,0.20834 -0.33694,0.43253 -0.41667,0.625c-0.11275,0.2722 -0.14446,0.51225 -0.41666,0.625c-0.19247,0.07972 -0.30392,0.14447 -0.41667,0.41667c-0.07973,0.19247 -0.1286,0.22419 -0.20833,0.41667c-0.11275,0.2722 -0.51225,0.3528 -0.625,0.625c-0.07972,0.19247 -0.12861,0.22419 -0.20833,0.41666c-0.11275,0.27221 -0.51225,0.14447 -0.625,0.41667c-0.07972,0.19247 -0.14447,0.30392 -0.41667,0.41667c-0.19247,0.07973 -0.43253,0.12861 -0.625,0.20833c-0.2722,0.11275 -0.43253,0.33694 -0.625,0.41667c-0.2722,0.11275 -0.3528,0.30392 -0.625,0.41666c-0.19247,0.07972 -0.47769,0.06102 -0.625,0.20834c-0.14731,0.14731 -0.26935,0.06102 -0.41667,0.20833c-0.14731,0.14731 -0.26935,0.06102 -0.41666,0.20833c-0.14732,0.14732 -0.26936,0.06102 -0.41667,0.20834c-0.14731,0.14731 -0.26935,0.06102 -0.41667,0.20833c-0.14731,0.14731 -0.22419,0.12861 -0.41666,0.20833c-0.27221,0.11275 -0.26936,0.26936 -0.41667,0.41667c-0.14731,0.14731 -0.41667,0.20833 -0.625,0.20833c-0.20833,0 -0.20833,0.20834 -0.41667,0.20834c-0.20833,0 -0.26935,0.06102 -0.41666,0.20833c-0.14732,0.14732 -0.26936,0.35564 -0.41667,0.20833c-0.14731,-0.14731 0,-0.41666 0,-0.625c0,-0.20833 -0.09558,-0.3528 -0.20833,-0.625c-0.07972,-0.19247 0,-0.625 0,-0.83333c0,-0.20833 0,-0.625 0,-0.83333c0,-0.20834 0,-0.41667 0,-0.83334c0,-0.20833 0,-0.625 0,-1.04166c0,-0.20834 0.09558,-0.56113 0.20833,-0.83334c0.07972,-0.19247 0.09558,-0.56113 0.20833,-0.83333c0.07972,-0.19247 0,-0.41667 0,-0.625c0,-0.20833 0.20834,-0.41667 0.20834,-0.625c0,-0.41667 0,-0.625 0,-0.83333c0,-0.20834 0.09558,-0.56113 0.20833,-0.83334c0.07972,-0.19247 0,-0.41666 0,-0.83333c0,-0.20833 0,-0.41667 0,-0.83333c0,-0.20834 0.1013,-0.37995 0.20833,-0.83334c0.09573,-0.40552 0,-0.625 0,-1.04166c0,-0.20834 0,-0.83334 0,-1.04167c0,-0.41667 -0.04787,-0.83891 0,-1.04167c0.10703,-0.45338 0.20834,-0.625 0.20834,-1.04166c0,-0.20834 0,-0.41667 0,-0.625c0,-0.20834 0,-0.41667 0,-0.625c0,-0.20834 0,-0.41667 0,-0.83334c0,-0.20833 0,-0.41666 0,-0.625c0,-0.20833 0,-0.41666 0,-0.625c0,-0.20833 0,-0.41666 0,-0.625c0,-0.20833 -0.20834,-0.20833 -0.20834,-0.41667c0,-0.20833 -0.1286,-0.43252 -0.20833,-0.625c-0.11275,-0.2722 -0.41667,-0.20833 -0.625,-0.41667c-0.20833,-0.20833 -0.41667,-0.41667 -0.625,-0.625c-0.20833,-0.20833 -0.3528,-0.51225 -0.625,-0.625c-0.19247,-0.07973 -0.20833,-0.20833 -0.41667,-0.20833c-0.20833,0 -0.20833,-0.20833 -0.41666,-0.20833c-0.20834,0 -0.41667,-0.20833 -0.625,-0.20833c-0.20834,0 -0.41667,0 -0.625,0c-0.20834,0 -0.41667,-0.20833 -0.625,-0.20833c-0.20834,0 -0.41667,0 -0.625,0c-0.20834,0 -0.41667,0 -0.625,0c-0.20834,0 -0.47769,-0.14731 -0.625,0c-0.14732,0.14731 -0.20834,0.20833 -0.20834,0.41667l-0.20833,0l0,0.20833" id="svg_31" stroke="#000" fill="none"/>
  <path stroke="#000" d="m81.14478,40.63671c0,0.21067 0,0.42135 0,0.8427c0,0.42135 0,1.05337 0,1.68539c0,0.8427 -0.05335,1.68855 0,2.10674c0.10998,0.86212 0.32604,1.44913 0.43662,2.10674c0.10491,0.62386 0.10833,1.4553 0.2183,2.31742c0.08002,0.62729 0.10773,1.65981 0.21831,2.31742c0.13987,0.83181 0,1.68539 0,2.52809c0,1.05337 0.21831,1.68539 0.21831,2.73876c0,0.63202 -0.08002,1.26878 0,1.89607c0.10997,0.86212 0.2183,1.26404 0.2183,1.89607c0,0.63202 0,1.05337 0,1.68539c0,0.63202 0.21831,1.05337 0.21831,1.47472c0,0.63202 -0.10032,1.06464 0,1.47472c0.11216,0.45848 0.21831,0.84269 0.21831,1.26404c0,0.21067 0.2183,0.63202 0.2183,1.05337c0,0.21068 0.10016,0.35676 0.21831,0.63202c0.08354,0.19464 0.21831,0.21068 0.21831,0.42135c0,0.21068 0.06393,0.27238 0.2183,0.42135c0.15437,0.14897 0.06394,0.27237 0.21831,0.42135c0.15437,0.14897 0.28225,0.06171 0.43661,0.21068c0.15436,0.14896 0.15139,0.30733 0.43662,0.42135c0.20168,0.08062 0.23492,0.13005 0.43661,0.21068c0.28523,0.11401 0.65492,0.21067 1.09153,0.42135c0.43662,0.21068 0.83475,0.31312 1.30984,0.42135c0.42494,0.09681 1.09154,0 1.30984,0c0.43662,0 0.87323,0.21068 1.30984,0.21068c0.43662,0 0.65492,0 0.87323,0c0.43661,0 0.67154,0.08062 0.87323,0c0.28523,-0.11401 0.43661,-0.21067 0.65492,-0.42135c0.21831,-0.21068 0.50055,-0.27238 0.65492,-0.42135c0.15436,-0.14896 0.25609,-0.39032 0.43661,-0.63202c0.28542,-0.38216 0.43662,-0.63201 0.87323,-1.05337c0.2183,-0.21068 0.36949,-0.46053 0.65492,-0.8427c0.18051,-0.24169 0.25609,-0.39032 0.43661,-0.63202c0.28542,-0.38216 0.31847,-0.56744 0.43661,-0.84269c0.08354,-0.19464 0.05123,-0.45343 0.21831,-0.8427c0.11814,-0.27526 0.32446,-0.38421 0.43661,-0.8427c0.05015,-0.20504 0.13477,-0.64806 0.21831,-0.84269c0.11814,-0.27526 0.32446,-0.38422 0.43661,-0.8427c0.05016,-0.20504 0.21831,-0.63202 0.21831,-0.8427c0,-0.42135 0.21831,-0.63202 0.21831,-1.05337c0,-0.21067 0.2183,-0.63202 0.2183,-1.05337c0,-0.21067 0.21831,-0.63202 0.21831,-1.05337c0,-0.21068 0.21831,-0.42135 0.21831,-0.8427c0,-0.21067 0,-0.63202 0,-0.8427c0,-0.21067 0.2183,-0.63202 0.2183,-1.05337c0,-0.21067 0,-0.63202 0,-0.8427c0,-0.42135 0.10615,-0.80556 0.21831,-1.26404c0.05016,-0.20504 0,-0.42135 0,-0.8427c0,-0.21068 0.21831,-0.42135 0.21831,-0.63202c0,-0.21068 0,-0.42135 0,-0.8427c0,-0.21067 0,-0.42135 0,-0.63202c0,-0.21067 0,-0.42135 0,-0.63202c0,-0.21067 0.2183,-0.42135 0.2183,-0.63202c0,-0.21067 0,-0.42135 0,-0.63202c0,-0.21067 0,-0.42135 0,-0.63202c0,-0.21067 0,-0.42135 0,-0.63202c0,-0.21067 0,-0.42135 0,-0.63202c0,-0.21067 0,-0.42135 0,-0.63202c0,-0.21067 0,-0.42135 0,-0.63202c0,-0.21067 -0.15437,-0.48305 0,-0.63202c0.15437,-0.14897 0.21831,-0.21067 0.21831,-0.42135c0,-0.21068 0,-0.42135 0,-0.63202c0,-0.21068 0,-0.42135 0,-0.63202c0,-0.21068 0,-0.42135 0,-0.63202c0,-0.21068 -0.08354,-0.43739 0,-0.63202c0.11814,-0.27526 0.21831,-0.42135 0.21831,-0.63202c0,-0.21068 0.06393,-0.27238 0.2183,-0.42135c0.15437,-0.14897 0.21831,-0.21067 0.43662,-0.21067c0.2183,0 0.43661,0 0.65492,0c0.2183,0 0.43661,0 0.65492,0c0.2183,0 0.43661,0 0.65492,0c0.2183,0 0.28224,0.06171 0.43661,0.21067c0.15437,0.14897 0.28225,0.06171 0.43661,0.21067c0.15437,0.14897 0.28225,0.27238 0.43662,0.42135c0.15437,0.14897 0.06394,0.27238 0.2183,0.42135c0.15437,0.14897 0.06394,0.27237 0.21831,0.42135c0.15437,0.14897 -0.15437,0.48306 0,0.63202c0.15437,0.14897 0.21831,0.21068 0.21831,0.42135c0,0.42135 0.2183,0.63202 0.2183,0.8427c0,0.21068 0.10016,0.35676 0.21831,0.63202c0.08354,0.19464 0.21831,0.63202 0.21831,0.8427c0,0.21067 0.2183,0.42135 0.2183,0.63202c0,0.21067 0.10016,0.35676 0.21831,0.63202c0.08354,0.19464 0,0.42135 0,0.63202c0,0.21067 0.21831,0.42135 0.21831,0.63202c0,0.42135 0.10615,0.59489 0.2183,1.05337c0.05016,0.20504 0,0.42135 0,0.8427c0,0.21067 0,0.42135 0,0.63202c0,0.21067 0,0.42135 0,0.63202c0,0.21067 0.21831,0.42135 0.21831,0.8427c0,0.21067 0,0.63202 0,1.05337c0,0.21067 0,0.63202 0,1.05337c0,0.42135 0,0.8427 0,1.26404c0,0.21068 0,0.63202 0,1.05337c0,0.42135 -0.10615,0.80556 -0.21831,1.26404c-0.10032,0.41008 0,0.63202 0,1.26404c0,0.21067 0.10031,0.64329 0,1.05337c-0.11215,0.45847 -0.14836,0.84813 -0.2183,1.26404c-0.11058,0.65761 -0.21831,0.8427 -0.21831,1.26404c0,0.42135 -0.21831,0.8427 -0.21831,1.05338c0,0.42135 0.05015,0.63765 0,0.84269c-0.11215,0.45849 -0.2183,0.63202 -0.2183,0.8427c0,0.21068 -0.21831,0.42135 -0.21831,0.63202c0,0.42135 -0.16815,0.63765 -0.21831,0.8427c-0.11215,0.45848 -0.25609,0.60099 -0.43661,0.84269c-0.28543,0.38216 -0.36949,0.67122 -0.65492,1.05338c-0.18052,0.2417 -0.5878,0.46053 -0.87323,0.84269c-0.18052,0.2417 -0.36949,0.46054 -0.65492,0.8427c-0.18052,0.2417 -0.53677,0.35676 -0.65492,0.63202c-0.08354,0.19464 -0.18615,0.45782 -0.43661,0.63202c-0.39601,0.27545 -0.65492,0.42135 -0.87323,0.63202c-0.2183,0.21068 -0.62276,0.45782 -0.87322,0.63202c-0.39601,0.27545 -0.65492,0.21068 -0.87323,0.42135c-0.21831,0.21068 -0.36969,0.51801 -0.65492,0.63202c-0.20169,0.08062 -0.36969,0.30734 -0.65492,0.42135c-0.20169,0.08062 -0.45323,0.13005 -0.65492,0.21067c-0.28523,0.11401 -0.43661,0.42135 -0.65492,0.42135c-0.21831,0 -0.36969,0.09665 -0.65492,0.21067c-0.20169,0.08062 -0.45323,-0.08062 -0.65492,0c-0.28523,0.11401 -0.45323,0.13005 -0.65492,0.21068c-0.28523,0.11401 -0.43661,0.21068 -0.65492,0.21068c-0.43661,0 -0.87323,0 -1.09153,0c-0.21831,0 -0.65492,0 -0.87323,0c-0.21831,0 -0.65492,0 -0.87323,0c-0.43661,0 -0.65492,0 -1.09153,0c-0.43661,0 -0.65492,0 -1.09153,0c-0.21831,0 -0.65492,0 -0.87323,0c-0.21831,0 -0.43661,-0.21068 -0.65492,-0.21068c-0.21831,0 -0.45323,-0.13005 -0.65492,-0.21068c-0.28523,-0.11401 -0.588,-0.30733 -0.87323,-0.42135c-0.20168,-0.08062 -0.588,-0.30733 -0.87322,-0.42135c-0.20169,-0.08062 -0.28225,-0.06171 -0.43662,-0.21068c-0.15436,-0.14896 -0.23492,-0.13005 -0.43661,-0.21068c-0.28523,-0.11401 -0.23493,-0.34072 -0.43661,-0.42135c-0.28523,-0.11401 -0.21831,-0.42135 -0.43662,-0.63202c-0.2183,-0.21068 -0.35307,-0.43739 -0.43661,-0.63202c-0.11814,-0.27526 -0.35307,-0.43739 -0.43661,-0.63202c-0.11814,-0.27526 -0.31847,-0.35676 -0.43662,-0.63202c-0.08354,-0.19464 0.09044,-0.54476 -0.2183,-0.8427c-0.15437,-0.14897 -0.35307,-0.43739 -0.43662,-0.63202c-0.11814,-0.27525 -0.32445,-0.38421 -0.43661,-0.84269c-0.05016,-0.20504 -0.10016,-0.35676 -0.21831,-0.63202c-0.16709,-0.38928 0.08354,-0.64806 0,-0.8427c-0.11814,-0.27526 -0.16814,-0.63766 -0.2183,-0.8427c-0.11216,-0.45848 -0.21831,-0.63202 -0.21831,-1.05337c0,-0.21068 -0.10016,-0.35676 -0.21831,-0.63202c-0.08354,-0.19464 0,-0.42135 0,-0.63202c0,-0.21068 0,-0.42135 0,-0.8427c0,-0.21067 -0.10016,-0.35676 -0.2183,-0.63202c-0.16708,-0.38927 0,-0.63202 0,-0.8427c0,-0.42135 0,-0.63202 0,-1.05337c0,-0.21068 0,-0.42135 0,-0.63202c0,-0.42135 0,-0.63202 0,-0.8427c0,-0.42135 0,-0.63202 0,-0.8427c0,-0.21067 0,-0.42135 0,-0.63202c0,-0.42135 0,-0.63202 0,-0.8427c0,-0.21068 0,-0.42135 0,-0.8427c0,-0.21067 0,-0.42135 0,-0.63202c0,-0.21067 0,-0.42135 0,-0.63202c0,-0.21067 0,-0.42135 0,-0.63202c0,-0.21067 0,-0.63202 0,-0.8427c0,-0.21067 0,-0.42135 0,-0.63202c0,-0.21067 -0.15437,-0.48306 0,-0.63202c0.15436,-0.14897 0.2183,-0.21067 0.2183,-0.42135c0,-0.21067 0,-0.42135 0,-0.63202c0,-0.21067 0,-0.42135 0,-0.63202c0,-0.21067 0,-0.42135 0,-0.63202c0,-0.21067 0.21831,-0.21067 0.21831,-0.42135c0,-0.21068 0,-0.42135 0,-0.63202c0,-0.21068 0,-0.42135 0,-0.63202c0,-0.21068 -0.08354,-0.43739 0,-0.63202c0.11814,-0.27526 0.21831,-0.42135 0.21831,-0.63202c0,-0.21068 0,-0.42135 0,-0.63202c0,-0.21068 0,-0.42135 0,-0.63202c0,-0.21068 0.10016,-0.35677 0.2183,-0.63202c0.08354,-0.19464 0,-0.42135 0,-0.63202c0,-0.21068 0,-0.42135 0,-0.63202c0,-0.21068 0,-0.42135 0,-0.63202c0,-0.21068 0,-0.42135 0,-0.63202c0,-0.21068 0,-0.42135 0,-0.63202c0,-0.21068 0,-0.42135 0,-0.63202c0,-0.21068 0.06394,-0.27238 0.21831,-0.42135c0.15437,-0.14897 0,-0.42135 0,-0.63202c0,-0.21067 0,-0.42135 0,-0.63202c0,-0.21067 0.21831,-0.21067 0.21831,-0.42135c0,-0.21067 0,-0.42135 0,-0.63202l0,-0.21067l0.2183,0" id="svg_32" fill="none"/>
  <path stroke="#000" d="m113.69208,72.84279c-0.24319,0 -0.24319,-0.23399 -0.24319,-0.46797c0,-0.46798 0,-0.93596 0,-1.40393c0,-0.70197 0,-1.40393 0,-2.33989c0,-0.93596 0,-1.8719 0,-3.04185c0,-0.70197 -0.24319,-1.8719 -0.24319,-2.80786c0,-1.16994 0.14857,-1.88067 0,-3.04185c-0.12253,-0.95753 -0.24321,-1.40393 -0.24321,-2.33988c0,-0.70197 0,-1.40393 0,-2.1059c0,-0.70197 0,-1.40393 0,-2.1059c0,-0.70197 -0.16763,-1.18872 0,-1.87191c0.12495,-0.50922 0.24321,-1.16994 0.4864,-1.63792c0.24319,-0.46798 0.24319,-0.93595 0.4864,-1.40393c0.24319,-0.46797 0.48639,-0.70196 0.7296,-1.16994c0.24319,-0.46797 0.52849,-0.6675 0.7296,-0.93595c0.31797,-0.42445 0.45057,-0.97645 0.7296,-1.16994c0.44116,-0.30592 0.77482,-0.63003 1.21598,-0.93595c0.27903,-0.19349 0.69378,-0.50848 0.97281,-0.70197c0.44116,-0.30592 0.65503,-0.57533 0.97279,-0.70197c0.44937,-0.17909 0.65503,-0.34134 0.97279,-0.46798c0.44937,-0.17909 0.7361,-0.18023 0.97281,-0.23399c0.52924,-0.12021 0.65503,-0.34134 0.97279,-0.46798c0.22469,-0.08955 0.50491,0.08954 0.7296,0c0.31776,-0.12663 0.4864,-0.23399 0.7296,-0.23399c0.24319,0 0.7296,0 0.97279,0c0.24321,0 0.7296,0 0.97281,0c0.24319,0 0.48639,0 0.7296,0c0.24319,0 0.48639,0 0.7296,0c0.24319,0 0.50489,-0.08955 0.7296,0c0.31776,0.12663 0.31442,0.30252 0.48639,0.46798c0.17198,0.16546 0.31444,0.06853 0.4864,0.23399c0.17196,0.16545 0.24319,0.23399 0.24319,0.46798c0,0.23399 0.07125,0.30252 0.24321,0.46797c0.17196,0.16545 0.07123,0.30253 0.24319,0.46798c0.17196,0.16545 0.07123,0.30252 0.24319,0.46798c0.17198,0.16546 0.35479,0.16226 0.4864,0.46797c0.09307,0.21618 0.07123,0.30253 0.24319,0.46798c0.17196,0.16545 -0.17196,0.53651 0,0.70197c0.17198,0.16546 0.24321,0.23399 0.24321,0.46798c0,0.23399 0.24319,0.23399 0.24319,0.70197c0,0.23399 0.24319,0.23399 0.24319,0.46797c0,0.23399 0.11158,0.39624 0.24321,0.70197c0.09307,0.21618 0,0.46798 0,0.70197c0,0.23399 0.24319,0.46798 0.24319,0.70197c0,0.23399 -0.09307,0.48579 0,0.70197c0.13162,0.30572 0.24319,0.46798 0.24319,0.70197c0,0.23399 -0.17196,0.53651 0,0.70197c0.17198,0.16546 0.24321,0.23399 0.24321,0.46798c0,0.23399 0,0.46798 0,0.70197c0,0.23399 0.11158,0.39625 0.24319,0.70197c0.09307,0.21618 0,0.46798 0,0.93595c0,0.23399 0.11158,0.39625 0.24319,0.70197c0.09307,0.21618 0,0.46798 0,0.70197c0,0.23399 0,0.46798 0,0.93596c0,0.23399 0.11158,0.39624 0.24321,0.70197c0.18614,0.43235 0,0.70197 0,1.16994c0,0.46798 0,0.70197 0,1.16994c0,0.46798 0,0.70197 0,1.16994c0,0.23399 0,0.46797 0,0.70197c0,0.23399 0,0.46797 0,0.70197c0,0.46797 0,0.70196 0,0.93595c0,0.23399 0,0.46797 0,0.70197c0,0.23399 0,0.70197 0,0.93596c0,0.23398 0,0.46797 0,0.70197c0,0.23398 0,0.46797 0,0.70197c0,0.23398 0,0.46797 0,0.70197c0,0.23398 0.17196,0.53651 0,0.70197c-0.17198,0.16547 -0.24321,0.23398 -0.24321,0.46797c0,0.23399 0,0.46797 0,0.70197c0,0.23399 -0.24319,0.46797 -0.24319,0.70197c0,0.23399 0,0.46797 0,0.70197c0,0.23399 0.17196,0.53651 0,0.70197c-0.17196,0.16545 -0.24319,0.23399 -0.24319,0.46797c0,0.23399 0,0.46798 0,0.70197c0,0.23399 -0.11158,0.39624 -0.24321,0.70197c-0.09307,0.21618 0,0.46798 0,0.70197c0,0.23399 0,0.46798 0,0.70197c0,0.23399 0.17196,0.53652 0,0.70197c-0.17196,0.16545 -0.24319,0.23399 -0.24319,0.46798c0,0.23398 -0.11158,0.07173 -0.24319,-0.23399c-0.09307,-0.21618 -0.15014,-0.2518 -0.24321,-0.46797c-0.13162,-0.30572 -0.31442,-0.53652 -0.48639,-0.70197c-0.17198,-0.16547 -0.31444,-0.06853 -0.4864,-0.23399c-0.17196,-0.16545 -0.55764,0.16545 -0.7296,0c-0.17196,-0.16546 -0.24319,-0.23399 -0.4864,-0.23399c-0.24319,0 -0.24319,-0.23398 -0.48639,-0.23398c-0.24321,0 -0.31444,-0.06854 -0.4864,-0.23399c-0.17196,-0.16546 -0.24319,-0.23399 -0.24319,-0.46797c0,-0.23399 -0.24321,-0.23399 -0.24321,-0.46798c0,-0.23398 -0.24319,-0.23398 -0.24319,-0.46797c0,-0.23399 -0.11158,-0.39624 -0.24319,-0.70197c-0.09307,-0.21618 0,-0.46797 0,-0.70197c0,-0.23399 0,-0.46797 0,-0.70197c0,-0.23399 -0.24321,-0.23399 -0.24321,-0.46797c0,-0.23399 0,-0.46798 0,-0.70197c0,-0.23399 0,-0.46798 0,-0.70197c0,-0.23399 0,-0.46798 0,-0.70197c0,-0.23399 0,-0.46798 0,-0.70197c0,-0.23399 0,-0.46798 0,-0.70197c0,-0.23399 0,-0.46798 0,-0.70197c0,-0.23399 0.24321,-0.23399 0.24321,-0.46798c0,-0.23398 0,-0.46797 0,-0.70197c0,-0.23398 0.24319,-0.23398 0.24319,-0.46797c0,-0.23399 -0.17196,-0.53651 0,-0.70197c0.17196,-0.16545 0.24319,-0.23399 0.24319,-0.46798c0,-0.23399 0.24321,-0.46797 0.24321,-0.70197c0,-0.23399 0.07123,-0.30252 0.24319,-0.46797c0.17196,-0.16546 0,-0.46798 0,-0.70197c0,-0.23399 0.24319,-0.23399 0.24319,-0.46798c0,-0.23399 -0.09307,-0.48579 0,-0.70197c0.13163,-0.30573 0.24321,-0.46798 0.24321,-0.70197c0,-0.23399 0,-0.46798 0,-0.70197c0,-0.23399 0.07123,-0.30253 0.24319,-0.46798c0.17196,-0.16545 0,-0.46797 0,-0.70197c0,-0.23399 0,-0.46797 0,-0.70197c0,-0.23399 0,-0.46797 0,-0.70197c0,-0.23399 0,-0.46797 0,-0.70197c0,-0.23399 0,-0.46797 0,-0.70197c0,-0.23399 0,-0.46797 0,-0.70197c0,-0.23399 0,-0.46797 0,-0.70197c0,-0.23399 0,-0.46797 0,-0.70197c0,-0.23399 -0.07123,-0.30252 -0.24319,-0.46797c-0.17196,-0.16546 0.17196,-0.53651 0,-0.70197c-0.17198,-0.16546 -0.07125,-0.30253 -0.24321,-0.46798c-0.17196,-0.16545 -0.07123,-0.30252 -0.24319,-0.46798c-0.17196,-0.16545 -0.07123,-0.30252 -0.24319,-0.46797c-0.17198,-0.16546 -0.07125,-0.30253 -0.24321,-0.46798c-0.17196,-0.16545 -0.07123,-0.30252 -0.24319,-0.46798c-0.17196,-0.16545 -0.07123,-0.30252 -0.24319,-0.46797c-0.17198,-0.16546 -0.31444,-0.06854 -0.4864,-0.23399c-0.17196,-0.16545 -0.07123,-0.30252 -0.24319,-0.46797c-0.17198,-0.16546 -0.55764,0.16545 -0.7296,0c-0.17196,-0.16546 -0.24321,-0.23399 -0.4864,-0.23399c-0.24319,0 -0.4864,0 -0.7296,0c-0.24319,0 -0.4864,0 -0.7296,0c-0.24319,0 -0.55764,-0.16545 -0.7296,0c-0.17196,0.16546 -0.07123,0.30253 -0.24319,0.46798c-0.17198,0.16546 -0.31444,0.06853 -0.4864,0.23399c-0.17196,0.16545 -0.2617,0.14444 -0.4864,0.23399c-0.31776,0.12663 -0.31442,0.30252 -0.48639,0.46797c-0.17198,0.16546 -0.31444,0.06854 -0.4864,0.23399c-0.17196,0.16545 -0.31442,0.30251 -0.4864,0.46797c-0.17196,0.16546 -0.07123,0.53651 -0.24319,0.70197c-0.17196,0.16545 -0.31444,0.30253 -0.4864,0.46798c-0.17196,0.16545 -0.15012,0.2518 -0.24319,0.46798c-0.13162,0.30572 -0.35477,0.39624 -0.4864,0.70197c-0.09307,0.21618 -0.07123,0.30252 -0.24319,0.46797c-0.17196,0.16546 -0.11158,0.39625 -0.24319,0.70197c-0.09307,0.21618 -0.11158,0.39624 -0.24321,0.70197c-0.09307,0.21618 -0.07123,0.30253 -0.24319,0.46798c-0.17196,0.16545 0,0.46798 0,0.70197c0,0.23399 -0.07123,0.30253 -0.24319,0.46798c-0.17196,0.16545 0,0.46797 0,0.70197c0,0.23399 0,0.46797 0,0.70197c0,0.23399 -0.24321,0.23399 -0.24321,0.46797c0,0.23399 0,0.46798 0,0.70197c0,0.23399 0,0.46798 0,0.70197c0,0.23399 0.09307,0.48579 0,0.70197c-0.13162,0.30572 -0.24319,0.46798 -0.24319,0.70197c0,0.23399 0,0.46798 0,0.70197c0,0.23399 0,0.46798 0,0.70197c0,0.23399 0,0.46798 0,0.70197c0,0.23399 0,0.46798 0,0.70197c0,0.23399 0,0.46798 0,0.70197c0,0.23399 0,0.46798 0,0.70197c0,0.23398 0,0.46797 0,0.70197c0,0.23398 0,0.46797 0,0.70197c0,0.23398 0,0.46797 0,0.70197c0,0.23398 0,0.46797 0,0.70197c0,0.23398 0,0.46797 0,0.70197c0,0.23398 0,0.46797 0,0.70197c0,0.23398 0,0.46797 0,0.70197c0,0.23398 -0.17196,0.53651 0,0.70197c0.17196,0.16545 0.24319,0.23398 0.24319,0.46797c0,0.23399 0,0.46797 0,0.70197c0,0.23399 0,0.46797 0,0.70197c0,0.23399 0,0.46797 0,0.70197c0,0.23399 0.09307,0.48579 0,0.70197c-0.13162,0.30572 -0.24319,0.46797 -0.24319,0.70197c0,0.23399 -0.24319,0.46797 -0.24319,0.70197c0,0.23399 -0.07123,0.30251 -0.24321,0.46797c-0.17196,0.16546 -0.07123,0.30253 -0.24319,0.46798c-0.17196,0.16545 -0.07123,0.30253 -0.24319,0.46797c-0.17196,0.16546 -0.24321,0.46797 -0.4864,0.46797c-0.24319,0 -0.4864,0 -0.7296,0c-0.24319,0 -0.4864,0 -0.7296,0c-0.24319,0 -0.31444,-0.06853 -0.4864,-0.23398c-0.17196,-0.16545 -0.07123,-0.30253 -0.24319,-0.46798c-0.17196,-0.16545 -0.07123,-0.30252 -0.24319,-0.46797c-0.17198,-0.16547 -0.24321,-0.23399 -0.24321,-0.46797c0,-0.23399 -0.07123,-0.30253 -0.24319,-0.46798c-0.17196,-0.16545 0,-0.46797 0,-0.70197c0,-0.23398 0,-0.46797 0,-0.70197l0,-0.23398l0,-0.23399" id="svg_33" fill="none"/>
  <path d="m174.37499,37.08333c-0.20833,0 -0.37994,-0.1013 -0.83333,-0.20833c-0.40553,-0.09573 -1.04167,0 -1.875,0c-0.625,0 -1.66667,0 -2.5,0c-1.25,0 -2.08333,-0.20833 -3.33333,-0.20833c-1.25,0 -2.29167,0 -3.125,0c-0.625,0 -1.66667,0 -2.29167,0c-0.625,0 -1.04167,0.20833 -1.25,0.20833c-0.41667,0 -0.625,0 -0.83333,0c-0.20834,0 -0.20834,0.20833 -0.20834,0.41667c0,0.20833 0,0.41666 0,0.625c0,0.20833 0,0.41666 0,0.83333c0,0.625 0,0.83333 0,1.25c0,0.41667 0,0.83333 0,1.25c0,0.41667 0,1.04167 0,1.45833c0,0.625 0,1.04167 0,1.66667c0,0.625 0,1.04167 0,1.66667c0,0.625 0.14359,1.05838 0,1.66666c-0.10703,0.45338 -0.14159,1.04705 -0.20833,1.45834c-0.10553,0.6503 -0.51797,1.21328 -0.625,1.66666c-0.1436,0.60828 -0.10822,1.25807 -0.20833,1.875c-0.10553,0.6503 -0.11865,1.27771 -0.41667,2.08334c-0.16162,0.43691 -0.44081,1.24247 -0.625,1.875c-0.24016,0.82472 -0.51797,1.42162 -0.625,1.875c-0.14359,0.60828 -0.20833,1.25 -0.20833,1.875c0,0.41666 -0.20834,0.83333 -0.20834,1.45833c0,0.41667 -0.1013,1.00495 -0.20833,1.45833c-0.09573,0.40552 0.09573,1.05281 0,1.45833c-0.10703,0.45339 -0.20833,0.83334 -0.20833,1.25c0,0.41667 0,0.83334 0,1.04167c0,0.41666 0,0.625 0,0.83333c0,0.20834 0,0.41667 0,0.625c0,0.20834 0,0.41667 0,0.625c0,0.20834 0,0.41667 0,0.625c0,0.20834 0,0.41667 0,0.625c0,0.20834 0,0.41667 0,0.625c0,0.20834 0,0.41667 0,0.625c0,0.20834 0.20833,0.20834 0.20833,0c0,-0.20833 0,-0.41666 0,-0.83333l0,-0.20834l0,-0.20834" id="svg_38" stroke="#000" fill="none"/>
  <path d="m157.29166,54.375c0,0 0.20834,0 0.41667,0c0.20833,0 0.58829,-0.1013 1.04167,-0.20833c0.40552,-0.09573 0.83333,0 1.25,0c0.41666,0 0.76945,-0.09558 1.04166,-0.20834c0.38495,-0.15946 0.625,0 1.04167,0c0.41667,0 0.83333,0 1.25,0c0.41667,0 0.83333,0 1.04167,0c0.625,0 0.83333,0 1.25,0c0.41666,0 0.76945,-0.09558 1.04166,-0.20833c0.19249,-0.07973 0.41667,0 0.83334,0c0.20833,0 0.41666,0 0.625,0c0.20833,0 0.41666,0 0.625,0c0.20833,0 0.41666,0 0.625,0c0.20833,0 0.41666,0 0.625,0c0.20833,0 0.41666,0 0.625,0c0.20833,0 0.41666,0 0.625,0l0.20833,0" id="svg_39" stroke="#000" fill="none"/>
  <path d="m176.25001,55c-0.20834,0 -0.47769,-0.14731 -0.625,0c-0.14731,0.14731 -0.06104,0.26935 -0.20834,0.41667c-0.14731,0.14731 -0.26935,0.26935 -0.41666,0.41666c-0.14732,0.14732 -0.30392,0.14447 -0.41667,0.41667c-0.07973,0.19247 -0.2444,0.38598 -0.41667,0.625c-0.27238,0.37791 -0.20833,0.625 -0.20833,1.04167c0,0.20833 0,0.625 0,1.04166c0,0.41667 -0.09573,0.84448 0,1.25c0.10703,0.45338 0.44673,0.61128 0.625,1.04167c0.25211,0.60866 0.35631,1.05061 0.41667,1.25c0.21767,0.71892 0.56094,1.08042 0.83333,1.45833c0.34454,0.47803 0.83333,0.83333 1.25,1.25c0.41667,0.41666 0.71227,0.71226 1.04167,1.04166c0.32941,0.3294 0.66374,0.35262 1.04166,0.625c0.23903,0.17228 0.44839,0.46555 0.83334,0.625c0.2722,0.11275 0.58827,0.51797 1.04166,0.625c0.40552,0.09573 0.83334,0 1.25,0c0.41667,0 0.83334,0 1.45834,0c0.625,0 1.05838,0.14359 1.66666,0c0.45338,-0.10703 0.87209,-0.35262 1.25,-0.625c0.23903,-0.17228 0.59431,-0.45272 0.83334,-0.625c0.37791,-0.27238 0.54527,-0.43253 0.625,-0.625c0.11275,-0.2722 0.16046,-0.63057 0.20833,-0.83334c0.10703,-0.45338 0.20833,-0.83333 0.20833,-1.25c0,-0.41666 0,-0.83333 0,-1.25c0,-0.41667 0.15945,-0.86505 0,-1.25c-0.11275,-0.2722 -0.41666,-0.83333 -0.625,-1.25c-0.20833,-0.41666 -0.69243,-0.73338 -1.04166,-1.04167c-0.56313,-0.49712 -0.83334,-1.04167 -1.45834,-1.45833c-0.625,-0.41667 -1.01697,-0.66464 -1.66666,-1.04167c-0.40292,-0.23382 -0.81963,-0.44673 -1.25,-0.625c-0.60866,-0.25212 -0.80804,-0.51947 -1.45834,-0.625c-0.20564,-0.03337 -0.625,-0.20833 -1.04166,-0.20833c-0.20834,0 -0.3528,-0.09558 -0.625,-0.20834c-0.38495,-0.15946 -0.625,0 -1.04167,0c-0.20833,0 -0.41667,0 -0.625,0c-0.20833,0 -0.41667,0 -0.625,0c-0.20833,0 -0.41667,0 -0.625,0c-0.20833,0 -0.26936,0.06102 -0.41667,0.20834c-0.14731,0.14731 -0.47768,0.06101 -0.625,0.20833c-0.14731,0.14731 -0.26935,0.06102 -0.41666,0.20833c-0.14731,0.14732 -0.20834,0.20834 -0.20834,0.41667c0,0.20833 -0.20833,0.20833 -0.20833,0.41667l0.20833,0l0.20834,0l0.20833,0" id="svg_40" stroke="#000" fill="none"/>
  <path d="m195.00001,61.45833c0,0.20834 0.41666,0.20834 0.625,0.20834c0.41666,0 0.83333,0 1.45833,0c0.41667,0 0.83333,0 1.45833,0c0.625,0 1.25,0 1.875,0c0.625,0 1.04706,-0.14159 1.45834,-0.20834c0.6503,-0.10553 1.05751,-0.33693 1.25,-0.41666c0.2722,-0.11275 0.26935,-0.47769 0.41666,-0.625c0.14732,-0.14732 0.20834,-0.20834 0.20834,-0.41667c0,-0.20833 0,-0.41667 0,-0.625c0,-0.20833 -0.1013,-0.37994 -0.20834,-0.83333c-0.04787,-0.20276 -0.45541,-0.56095 -0.83333,-0.83334c-0.47803,-0.34454 -1.07486,-0.54388 -1.66667,-0.83333c-0.67477,-0.33002 -1.26114,-0.52927 -1.66666,-0.625c-0.45338,-0.10703 -0.76947,-0.30392 -1.04167,-0.41667c-0.38495,-0.15946 -0.625,0 -0.83333,0c-0.20834,0 -0.41667,0 -0.625,0c-0.20834,0 -0.43253,-0.07972 -0.625,0c-0.27222,0.11275 -0.58842,0.22873 -0.83334,0.625c-0.10953,0.17722 -0.20833,0.20834 -0.41666,0.41667c-0.20834,0.20834 -0.30392,0.3528 -0.41667,0.625c-0.07973,0.19247 0.01073,0.4789 -0.20833,0.83333c-0.24492,0.39628 -0.41667,0.41667 -0.625,0.83334c-0.20834,0.41667 -0.41667,0.83333 -0.41667,1.04166c0,0.20834 -0.20833,0.625 -0.20833,0.83334c0,0.41666 0,0.625 0,0.83333c0,0.20833 0,0.625 0,0.83333c0,0.41667 0.03606,0.80265 0.20833,1.04167c0.27238,0.37791 0.2444,0.59431 0.41667,0.83334c0.27238,0.37791 0.41666,0.62499 0.625,0.83333c0.20833,0.20833 0.24709,0.35262 0.625,0.625c0.23901,0.17227 0.625,0.41667 0.83333,0.625c0.41667,0.41667 0.83333,0.41667 1.25,0.625c0.41667,0.20834 0.83871,0.34993 1.25,0.41667c0.6503,0.10553 1.04706,0.34992 1.45833,0.41666c0.6503,0.10553 1.04167,0.20834 1.45834,0.20834c0.625,0 1.04166,0 1.66666,0c0.41667,0 0.83334,0 1.25,0c0.41667,0 0.625,0 0.83334,0c0.41666,0 0.625,0 0.83333,0c0.20833,0 0.41667,0 0.41667,-0.20834c0,-0.20834 0,-0.41666 0,-0.625l0,-0.20834" id="svg_41" stroke="#000" fill="none"/>
  <path d="m211.45833,56.25c0,0.20833 0,0.41667 0,0.625c0,0.20833 0,0.625 0,1.04167c0,0.625 0.10822,1.25807 0.20833,1.875c0.10553,0.6503 0.20834,1.45833 0.41667,2.08333c0.20833,0.625 0.33556,1.49152 0.625,2.08333c0.33002,0.67478 0.56544,1.08577 1.04167,1.66667c0.37358,0.45569 0.56094,1.08042 0.83333,1.45834c0.34454,0.47803 0.67387,0.86505 0.83333,1.25c0.11276,0.2722 0.51225,0.3528 0.625,0.625c0.07973,0.19247 0.20834,0.20833 0.20834,0c0,-0.20834 0.16046,-0.21391 0.20833,-0.41667c0.10703,-0.45338 0.35262,-0.66375 0.625,-1.04166c0.17227,-0.23901 0.44673,-0.61128 0.625,-1.04166c0.25211,-0.60866 0.34993,-1.04705 0.41667,-1.45834c0.10553,-0.6503 0.30963,-1.00495 0.41666,-1.45833c0.09573,-0.40552 0.1013,-0.58828 0.20834,-1.04167c0.04787,-0.20276 0.1013,-0.58828 0.20833,-1.04167c0.04787,-0.20276 0,-0.41666 0,-0.83333c0,-0.20833 0,-0.41667 0,-0.625c0,-0.20833 0,-0.41667 0,-0.625c0,-0.20833 0,-0.41667 0,-0.625c0,-0.20833 0.06102,-0.26936 0.20833,-0.41667c0.14731,-0.14731 0,-0.41666 0,-0.625c0,-0.20833 0.20834,-0.41666 0.20834,-0.625c0,-0.20833 0.06102,-0.47768 0.20833,-0.625c0.14731,-0.14731 0.20833,-0.20833 0.20833,-0.41666c0,-0.20834 0,-0.41667 0.20834,-0.41667l0,-0.20833" id="svg_42" stroke="#000" fill="none"/>
  <path d="m225.00001,63.95833c0.20833,0 0.41666,0 0.625,0c0.20833,0 0.43338,0.1436 1.04166,0c0.45338,-0.10703 0.80804,-0.31113 1.45834,-0.41666c0.61693,-0.10011 1.21329,-0.30964 1.66666,-0.41667c0.40552,-0.09573 1.04167,-0.20833 1.45834,-0.41667c0.41666,-0.20833 0.83333,-0.20834 1.04166,-0.41666c0.20834,-0.20834 0.625,-0.20833 0.83334,-0.41667c0.20833,-0.20833 0.30391,-0.3528 0.41666,-0.625c0.07973,-0.19247 0,-0.41667 0,-0.625c0,-0.20833 0,-0.41667 0,-0.625c0,-0.20833 0,-0.625 0,-0.83333c0,-0.20834 0,-0.625 -0.20833,-0.83334c-0.20833,-0.20833 -0.38599,-0.66106 -0.625,-0.83333c-0.37791,-0.27239 -0.83333,-0.625 -1.25,-0.83333c-0.41667,-0.20834 -0.58829,-0.30964 -1.04167,-0.41667c-0.20276,-0.04786 -0.26935,-0.06102 -0.41666,-0.20833c-0.14732,-0.14732 -0.41667,0 -0.625,0c-0.20834,0 -0.26936,0.06102 -0.41667,0.20833c-0.14731,0.14731 -0.35262,0.24708 -0.625,0.625c-0.17227,0.23901 -0.625,0.41667 -0.83333,0.625c-0.20834,0.20834 -0.45273,0.38599 -0.625,0.625c-0.27238,0.37792 -0.33694,0.64086 -0.41667,0.83333c-0.11275,0.2722 -0.25722,0.44838 -0.41667,0.83334c-0.11275,0.2722 -0.51224,0.35279 -0.625,0.625c-0.15945,0.38494 -0.30963,0.58828 -0.41666,1.04166c-0.04787,0.20276 -0.16048,0.42224 -0.20834,0.625c-0.10703,0.45338 -0.20833,0.625 -0.20833,0.83334c0,0.20833 0,0.41666 0,0.625c0,0.20833 0,0.41666 0,0.625c0,0.20834 0,0.41667 0,0.625c0,0.20834 -0.15945,0.44839 0,0.83334c0.11275,0.2722 0.20833,0.41666 0.41667,0.625c0.20833,0.20834 0.41666,0.41666 0.625,0.625c0.20833,0.20834 0.35278,0.51225 0.625,0.625c0.19247,0.07972 0.41666,0.20833 0.625,0.41666c0.20833,0.20833 0.59431,0.2444 0.83333,0.41667c0.37791,0.27238 0.64085,0.12861 0.83333,0.20833c0.27222,0.11275 0.41667,0.20834 0.83334,0.20834c0.20833,0 0.41666,0 0.625,0c0.41666,0 0.625,0 1.04166,0c0.20834,0 0.41667,0 0.625,0c0.20834,0 0.41667,0 0.625,0c0.41667,0 0.625,0 0.83334,0c0.20833,0 0.41666,-0.20834 0.625,-0.20834c0.20833,0 0.20833,-0.20833 0.41666,-0.20833c0.20834,0 0.41667,-0.20834 0.41667,-0.41667l0,-0.20833l0,-0.20834l0,-0.20834" id="svg_43" stroke="#000" fill="none"/>
  <path d="m237.50001,54.375c0.20833,0 0.1286,0.22419 0.20833,0.41667c0.11275,0.2722 0.20833,0.625 0.20833,0.83333c0,0.20833 0,0.625 0,1.04167c0,0.41666 0.20834,0.83333 0.20834,1.25c0,0.41666 0.20833,0.83333 0.20833,1.25c0,0.41666 0,0.83333 0,1.04166c0,0.41667 0,0.83334 0,1.25c0,0.41667 0.1013,0.58828 0.20833,1.04167c0.04787,0.20276 0,0.41667 0,0.83333c0,0.20834 0,0.41667 0,0.625c0,0.41667 0,0.625 0,0.83333c0,0.20834 0.20834,0.41667 0.20834,0.625c0,0.20834 0,0.41667 0,0.625c0,0.20834 0.20833,0.41667 0.20833,0.625c0,0.20834 -0.14731,0.47769 0,0.625c0.14731,0.14731 0.20833,0.20834 0.20833,0.41667c0,0.20833 -0.14731,0.47768 0,0.625c0.14732,0.14732 0.20834,-0.20834 0.20834,-0.41667c0,-0.20833 0,-0.41666 0,-0.625c0,-0.41666 0,-0.83333 0,-1.04166c0,-0.41666 0,-0.83334 0,-1.04166c0,-0.41667 0,-0.83334 0,-1.04167c0,-0.41666 0.20833,-0.83333 0.20833,-1.25c0,-0.20834 0.09558,-0.56113 0.20833,-0.83334c0.15945,-0.38495 -0.15945,-0.65672 0,-1.04166c0.11276,-0.27221 0.12862,-0.43253 0.20834,-0.625c0.11275,-0.2722 0.30391,-0.3528 0.41666,-0.625c0.07973,-0.19248 0.09558,-0.35279 0.20834,-0.625c0.07973,-0.19247 0.1286,-0.43253 0.20833,-0.625c0.11275,-0.2722 0.26935,-0.26935 0.41667,-0.41667c0.14731,-0.14731 0.01585,-0.33694 0.20833,-0.41667c0.2722,-0.11275 0.22418,-0.33693 0.41667,-0.41666c0.2722,-0.11275 0.3528,-0.51225 0.625,-0.625c0.19247,-0.07972 0.41666,0 0.41666,-0.20834l0.20834,0l0.20833,0l0,-0.20833" id="svg_44" stroke="#000" fill="none"/>
 </g>
</svg>